# xmcd CD database file
#
# Track frame offsets:
#	150
#	20993
#	42227
#	62264
#	94193
#	101071
#	120990
#	134781
#	151140
#	179382
#	195450
#	234196
#	261447
#	285318
#	300727
#
# Disc length: 4514 seconds
#
# Revision: 0
# Processed by: cddbd v1.5.1PL0 Copyright (c) Steve Scherf et al.
# Submitted via: CDex 1.50beta10
#
DISCID=c911a00f
DTITLE=Baden Powell - Live in Bruxelas
DYEAR=2005
DGENRE=Jazz
TTITLE0=vento vadio
TTITLE1=samba do avião
TTITLE2=manhã de canaval
TTITLE3=samba triste
TTITLE4=intro naquele tempo
TTITLE5=naquele tempo
TTITLE6=garota de ipanema
TTITLE7=intro asa branca
TTITLE8=asa branca
TTITLE9=samba em prelúdio
TTITLE10=berimbau
TTITLE11=consolação
TTITLE12=jesus alegria dos homens
TTITLE13=marcha escocesa
TTITLE14=samba da benção
EXTD=YEAR: 2005
EXTT0=
EXTT1=
EXTT2=
EXTT3=
EXTT4=
EXTT5=
EXTT6=
EXTT7=
EXTT8=
EXTT9=
EXTT10=
EXTT11=
EXTT12=
EXTT13=
EXTT14=
PLAYORDER=
